# Сгенерировано для PDRC Radiant Cooling Sheet
# Совместимо с 3D-просмотрщиком GitHub

# 1. Вершины здания и охлаждающей панели (x, y, z)
v -2.0000 0.0000 -2.0000
v 2.0000 0.0000 -2.0000
v 2.0000 2.0000 -2.0000
v -2.0000 2.0000 -2.0000
v -2.0000 0.0000 2.0000
v 2.0000 0.0000 2.0000
v 2.0000 2.0000 2.0000
v -2.0000 2.0000 2.0000
v 0.0000 3.2000 -2.1000
v 0.0000 3.2000 2.1000
v -2.3000 1.9000 -2.1000
v -2.3000 1.9000 2.1000
v 2.3000 1.9000 -2.1000
v 2.3000 1.9000 2.1000

# 2. Грани 3D-объекта
f 1 2 3 4
f 5 6 7 8
f 1 5 8 4
f 2 6 7 3
f 1 2 6 5
f 4 8 10 9
f 3 7 10 9
f 11 12 10 9
f 13 14 10 9